<svg id="Слой_2_копия_" data-name="Слой 2 (копия)" xmlns="http://www.w3.org/2000/svg" viewBox="0 0 500 479.83"><defs><style>.cls-1{fill:#cde0dc;}.cls-2{fill:#fff;}.cls-3{fill:#8ba39f;}.cls-4{fill:#21282b;}.cls-5{fill:#4c5e5e;}.cls-6{fill:#323c3f;}.cls-7{fill:#728985;}.cls-8{fill:#af7c66;}.cls-9{fill:#fc6527;}.cls-10{fill:#636363;}</style></defs><title>ЛоготипЦВ</title><path class="cls-1" d="M437.78,122.61v192.3c0,28.74-22.54,52-50.35,52H114.84c-27.81,0-50.36-23.3-50.36-52V122.61" transform="translate(0 -1)"/><rect class="cls-2" x="326.92" y="175.34" width="4.52" height="154.98"/><rect class="cls-2" x="309.95" y="176.47" width="7.92" height="154.98"/><rect class="cls-3" x="60" y="162.9" width="381.18" height="18.1"/><path class="cls-3" d="M71.27,334.71v.8C78.8,354,96.15,367,116.37,367H382.18c20.51,0,38.07-13.32,45.42-32.24Z" transform="translate(0 -1)"/><path class="cls-4" d="M386.32,368.21H114.18a56.9,56.9,0,0,1-56.83-56.83V125.58H70.47v185.8a43.76,43.76,0,0,0,43.71,43.72H386.32A43.77,43.77,0,0,0,430,311.38V125.58h13.12v185.8A56.9,56.9,0,0,1,386.32,368.21Z" transform="translate(0 -1)"/><rect class="cls-5" x="229.64" y="36.2" width="39.59" height="16.97"/><path class="cls-5" d="M59,131.09c0-40,84.75-69,190.67-69s191.79,29,191.79,69" transform="translate(0 -1)"/><path class="cls-3" d="M248.56,75.66c93.13,0,169,21.75,172.65,52h12.05c0-40-82.8-69-184.93-69s-183.85,29-183.85,69H76.91C80.48,97.41,155.43,75.66,248.56,75.66Z" transform="translate(0 -1)"/><rect class="cls-6" x="59.95" y="111.99" width="377.83" height="12.44"/><path class="cls-4" d="M443.16,126.13H430c0-15.26-18.35-30.43-50.35-41.63-34-11.92-80.21-18.48-130-18.48C150.87,66,70.47,93,70.47,126.13H57.35c0-21.81,20.25-40.48,58.57-54,35.13-12.4,82.64-19.23,133.79-19.23S348.62,59.73,384,72.12C422.71,85.66,443.16,104.34,443.16,126.13Z" transform="translate(0 -1)"/><rect class="cls-4" x="64.48" y="322.58" width="368.78" height="12"/><path class="cls-4" d="M500,189.91c0,22.63-19.49,37.33-31.67,37.33h-26v-43s7.92,0,14.35-.31a22.16,22.16,0,0,1,21.28-16.66C490.12,167.29,500,177.42,500,189.91Z" transform="translate(0 -1)"/><path class="cls-4" d="M0,189.91c0,22.63,19.49,37.33,31.67,37.33h26v-43s-7.92,0-14.35-.31a22.16,22.16,0,0,0-21.28-16.66C9.88,167.29,0,177.42,0,189.91Z" transform="translate(0 -1)"/><path class="cls-5" d="M444.57,199h16.78c4.17,0,8.11-3.39,8.11-7v-2.08a7.92,7.92,0,0,1,15.83,0V192c0,12.36-11,22.81-23.94,22.81H444.57Z" transform="translate(0 -1)"/><path class="cls-6" d="M444.57,199h9.05v11.32h9.05c5.66,0,11.94-4.61,13.57-6.79,2.63-3.5,4.53-7.92,4.53-11.31l4.52-.19c0,12.36-11,22.81-23.94,22.81H444.57Z" transform="translate(0 -1)"/><path class="cls-7" d="M453.62,202.36h11.31c5.66,0,9.05-6.79,9.05-11.31s5.66-6.79,6.79,1.13h4.52v-2.27a7.92,7.92,0,0,0-15.83,0V192c0,3.58-3.94,7-8.11,7h-7.73Z" transform="translate(0 -1)"/><path class="cls-5" d="M55.43,199H38.65c-4.17,0-8.11-3.39-8.11-7v-2.08a7.92,7.92,0,0,0-15.83,0V192c0,12.36,11,22.81,23.94,22.81H55.43Z" transform="translate(0 -1)"/><path class="cls-6" d="M55.43,199h-9v11.32H37.33c-5.66,0-11.94-4.61-13.57-6.79-2.63-3.5-4.53-7.92-4.53-11.31L14.71,192c0,12.36,11,22.81,23.94,22.81H55.43Z" transform="translate(0 -1)"/><path class="cls-7" d="M46.38,202.36H35.07c-5.66,0-9-6.79-9-11.31s-5.66-6.79-6.79,1.13H14.71v-2.27a7.92,7.92,0,0,1,15.83,0V192c0,3.58,3.94,7,8.11,7h7.73Z" transform="translate(0 -1)"/><line class="cls-8" x1="445.51" y1="197.96" x2="445.51" y2="213.8"/><polygon class="cls-9" points="145.01 245.29 215 215.05 215 232.92 162.9 253.39 215 275.05 215 292.83 145.01 262.77 145.01 245.29"/><polygon class="cls-9" points="359.8 245.29 289.81 215.05 289.81 232.92 341.91 253.39 289.81 275.05 289.81 292.83 359.8 262.77 359.8 245.29"/><polygon class="cls-9" points="246.61 306.56 231.9 306.56 259.05 200.23 273.76 200.23 246.61 306.56"/><rect class="cls-3" x="194.57" y="3.39" width="111.99" height="28.28" rx="12" ry="12"/><path class="cls-6" d="M306.56,20.23V22c0,5.86-6.11,10.66-13.57,10.66H208.14c-7.46,0-13.57-4.8-13.57-10.66V20.23Z" transform="translate(0 -1)"/><path class="cls-4" d="M293,39.46H208.14c-11.22,0-20.36-7.76-20.36-17.31V18.31C187.78,8.76,196.92,1,208.14,1H293c11.22,0,20.36,7.76,20.36,17.31v3.84C313.35,31.7,304.21,39.46,293,39.46ZM208.14,12.54c-3.74,0-6.78,2.59-6.78,5.77v3.84c0,3.19,3,5.77,6.78,5.77H293c3.74,0,6.78-2.58,6.78-5.77V18.31c0-3.18-3-5.77-6.78-5.77Z" transform="translate(0 -1)"/><path class="cls-7" d="M47,131.66a7.2,7.2,0,0,0-7.4,7v7.54a7.2,7.2,0,0,0,7.4,7H446.22a7.19,7.19,0,0,0,7.4-7v-7.54a7.19,7.19,0,0,0-7.4-7Z" transform="translate(0 -1)"/><path class="cls-5" d="M39.6,146.36h0v3.21a7.2,7.2,0,0,0,7.4,7H446.22a7.19,7.19,0,0,0,7.4-7v-3.21Z" transform="translate(0 -1)"/><rect class="cls-3" x="342.76" y="124.43" width="4.52" height="30.32"/><rect class="cls-3" x="326.92" y="124.66" width="7.92" height="30.32"/><path class="cls-4" d="M445.29,167.15H53.58c-7.71,0-14-6-14-13.29v-16c0-7.34,6.28-13.3,14-13.3H445.29c7.71,0,14,6,14,13.3v16C459.28,161.19,453,167.15,445.29,167.15ZM58.18,135.46a6.93,6.93,0,0,0-7.09,6.74v7.28a6.92,6.92,0,0,0,7.09,6.74H440.69a6.92,6.92,0,0,0,7.09-6.74V142.2a6.93,6.93,0,0,0-7.09-6.74Z" transform="translate(0 -1)"/><rect class="cls-6" x="229.64" y="35.07" width="39.59" height="9.05"/><line class="cls-10" x1="229.64" y1="29.41" x2="229.64" y2="53.17"/><rect class="cls-4" x="223.64" y="29.41" width="12" height="23.76"/><line class="cls-10" x1="269.23" y1="29.41" x2="269.23" y2="53.17"/><rect class="cls-4" x="263.23" y="29.41" width="12" height="23.76"/><path class="cls-3" d="M347.29,105.07s-26-18.1-84.85-24.88c43.57,9.17,64.21,24.07,64.21,24.07l8.19.32,4.1.16,3.83.16Z" transform="translate(0 -1)"/><path class="cls-2" d="M68.29,418a11.88,11.88,0,0,0-2.56-2.17,22.08,22.08,0,0,0-3.6-1.87,24.48,24.48,0,0,0-4.36-1.37,23.19,23.19,0,0,0-4.92-.51q-6.63,0-9.72,2.47a8.28,8.28,0,0,0-3.08,6.81,7.68,7.68,0,0,0,.88,3.84,7.23,7.23,0,0,0,2.76,2.59,21,21,0,0,0,4.68,1.88q2.81.81,6.64,1.69a69.87,69.87,0,0,1,8,2.19,23.38,23.38,0,0,1,6.08,3.08,12.39,12.39,0,0,1,3.84,4.49,14.35,14.35,0,0,1,1.32,6.47,14.77,14.77,0,0,1-1.6,7.08,14.17,14.17,0,0,1-4.36,5,18.74,18.74,0,0,1-6.52,2.88,33.93,33.93,0,0,1-8.16.92,37.7,37.7,0,0,1-12.44-2,34.43,34.43,0,0,1-10.68-6l3.44-6.07A19.83,19.83,0,0,0,37.21,452a27.65,27.65,0,0,0,4.64,2.43,34,34,0,0,0,5.6,1.77,28.51,28.51,0,0,0,6.28.68c4.06,0,7.2-.72,9.44-2.17a8,8,0,0,0,2.28-10.51,9.19,9.19,0,0,0-3.16-2.85,23.86,23.86,0,0,0-5.16-2.11c-2.05-.62-4.38-1.24-7-1.89a69.55,69.55,0,0,1-7.6-2.23,21.48,21.48,0,0,1-5.48-2.88,10.94,10.94,0,0,1-3.32-4.08,13.71,13.71,0,0,1-1.12-5.77,16.25,16.25,0,0,1,1.52-7.19A15.13,15.13,0,0,1,38.37,410a18.46,18.46,0,0,1,6.48-3.25A29.87,29.87,0,0,1,53,405.63a28.51,28.51,0,0,1,18.64,6.49Z" transform="translate(0 -1)"/><path class="cls-2" d="M118.77,462.83h-7V439.47c0-4.31-.74-7.53-2.24-9.64a7.54,7.54,0,0,0-6.56-3.16,11.23,11.23,0,0,0-4.16.84,15.69,15.69,0,0,0-3.88,2.28,16.52,16.52,0,0,0-3.2,3.45,15.38,15.38,0,0,0-2.12,4.39v25.2h-7v-58.4h7V430a18.3,18.3,0,0,1,6.72-7.12,17.61,17.61,0,0,1,9.28-2.57,13.2,13.2,0,0,1,6.24,1.36,10.92,10.92,0,0,1,4.08,3.68,15.88,15.88,0,0,1,2.2,5.57,33.84,33.84,0,0,1,.68,6.92Z" transform="translate(0 -1)"/><path class="cls-2" d="M131.65,474.2c.69.1,1.39.18,2.08.23s1.23.08,1.6.08a3.41,3.41,0,0,0,1.72-.43,4.76,4.76,0,0,0,1.52-1.73,28.71,28.71,0,0,0,1.72-3.56q1-2.27,2.4-6L125,421.08h7.28l14.24,35.43,13-35.43h6.72l-20.32,52.71a12.16,12.16,0,0,1-3.72,4.92,11,11,0,0,1-7.16,2.12,12.57,12.57,0,0,1-1.48-.08,17.62,17.62,0,0,1-1.88-.32Z" transform="translate(0 -1)"/><path class="cls-2" d="M173.33,413.24v-8.81h7v8.81Zm0,49.59V421.08h7v41.75Z" transform="translate(0 -1)"/><path class="cls-2" d="M202.45,463.63a15,15,0,0,1-5.52-1,13.58,13.58,0,0,1-4.44-2.75,13.09,13.09,0,0,1-3-4.13,12.23,12.23,0,0,1-1.08-5.16,10.87,10.87,0,0,1,1.28-5.24,11.82,11.82,0,0,1,3.64-4,19,19,0,0,1,5.6-2.65,25.2,25.2,0,0,1,7.08-1,34.2,34.2,0,0,1,6.16.57,28.92,28.92,0,0,1,5.52,1.51v-3.36a11,11,0,0,0-2.88-8c-1.92-1.94-4.64-2.92-8.16-2.92q-6.31,0-13.28,4.88l-2.32-4.56q8.08-5.43,16.24-5.44t12.84,4.4q4.61,4.41,4.6,12.41v17c0,1.65.75,2.5,2.24,2.55v6.08l-1.84.25a14.7,14.7,0,0,1-1.52.08,4.51,4.51,0,0,1-3.32-1.24,5.11,5.11,0,0,1-1.48-3l-.16-3a18.09,18.09,0,0,1-7.08,5.71A21.69,21.69,0,0,1,202.45,463.63Zm1.84-5.28a17.5,17.5,0,0,0,7-1.39,11.64,11.64,0,0,0,4.92-3.72,4.48,4.48,0,0,0,1.52-3.12V444a28.84,28.84,0,0,0-10.64-2,15,15,0,0,0-8.6,2.24,6.77,6.77,0,0,0-3.32,5.84,8,8,0,0,0,.68,3.28,7.8,7.8,0,0,0,1.92,2.64,9.2,9.2,0,0,0,2.92,1.75A10,10,0,0,0,204.29,458.35Z" transform="translate(0 -1)"/><path class="cls-2" d="M272.29,462.83h-7V439.47c0-4.47-.68-7.73-2-9.76a7,7,0,0,0-6.2-3,12.06,12.06,0,0,0-4.32.84,17.48,17.48,0,0,0-4.08,2.28,15.73,15.73,0,0,0-3.36,3.45,14.73,14.73,0,0,0-2.16,4.39v25.2h-7V421.08h6.4v9a18.23,18.23,0,0,1,7.16-7,20.42,20.42,0,0,1,10.2-2.65,12.33,12.33,0,0,1,6,1.32,10.2,10.2,0,0,1,3.84,3.68,16.43,16.43,0,0,1,2,5.57,37.76,37.76,0,0,1,.6,7Z" transform="translate(0 -1)"/><path d="M280.69,434a30.4,30.4,0,0,1,1.8-10.21,28.5,28.5,0,0,1,5.28-9.12,26.56,26.56,0,0,1,8.52-6.51,25.48,25.48,0,0,1,11.44-2.49,23.84,23.84,0,0,1,13,3.45,21.29,21.29,0,0,1,8.08,9l-5.68,3.67a16.31,16.31,0,0,0-3.08-4.55,15.63,15.63,0,0,0-3.92-3,17.15,17.15,0,0,0-4.36-1.61,20.92,20.92,0,0,0-4.4-.47,17.32,17.32,0,0,0-8.36,2,19.13,19.13,0,0,0-6.12,5.12,22.15,22.15,0,0,0-3.72,7.11,26.48,26.48,0,0,0-1.24,8,24.56,24.56,0,0,0,1.48,8.53,23.59,23.59,0,0,0,4.12,7.16,20.11,20.11,0,0,0,6.24,5,17,17,0,0,0,7.84,1.83,20,20,0,0,0,4.6-.55,17,17,0,0,0,4.52-1.81,18.78,18.78,0,0,0,4-3.12,15.25,15.25,0,0,0,3.08-4.52l6,3.29a17.6,17.6,0,0,1-3.8,5.63,24.42,24.42,0,0,1-5.52,4.13,27.79,27.79,0,0,1-6.52,2.55,26.89,26.89,0,0,1-6.72.89,22.69,22.69,0,0,1-10.72-2.57,28.59,28.59,0,0,1-8.44-6.67,30.71,30.71,0,0,1-5.52-9.37A30.15,30.15,0,0,1,280.69,434Z" transform="translate(0 -1)"/><path d="M356.05,463.63a20.43,20.43,0,0,1-15.24-6.47,21.29,21.29,0,0,1-4.28-6.88A22.69,22.69,0,0,1,335,442a22.34,22.34,0,0,1,1.56-8.33,21.91,21.91,0,0,1,4.32-6.88,20.53,20.53,0,0,1,6.64-4.71,20.31,20.31,0,0,1,8.52-1.77,20.76,20.76,0,0,1,15.24,6.48,21.91,21.91,0,0,1,4.32,6.88,22.34,22.34,0,0,1,1.56,8.33,22.69,22.69,0,0,1-1.52,8.24,20.77,20.77,0,0,1-11,11.6A20.63,20.63,0,0,1,356.05,463.63Zm-13.84-21.51a16.79,16.79,0,0,0,1.08,6.08,15.71,15.71,0,0,0,3,4.88,14,14,0,0,0,4.4,3.27,12.75,12.75,0,0,0,10.8,0,14.18,14.18,0,0,0,4.44-3.31,15.64,15.64,0,0,0,3-5A17.13,17.13,0,0,0,370,442a16.81,16.81,0,0,0-1.08-6,15.42,15.42,0,0,0-3-5,14.09,14.09,0,0,0-4.44-3.33,12.4,12.4,0,0,0-5.4-1.2,12.16,12.16,0,0,0-5.4,1.24,14.17,14.17,0,0,0-4.4,3.37,15.87,15.87,0,0,0-3,5A17,17,0,0,0,342.21,442.12Z" transform="translate(0 -1)"/><path d="M402.93,463.63a18.33,18.33,0,0,1-8-1.75,19.91,19.91,0,0,1-6.32-4.72,21.77,21.77,0,0,1-4.12-6.88A23.09,23.09,0,0,1,383,442a24.8,24.8,0,0,1,1.4-8.37,21.85,21.85,0,0,1,3.92-6.92,18.58,18.58,0,0,1,6-4.67,17,17,0,0,1,7.64-1.73,15.86,15.86,0,0,1,9,2.65,20.77,20.77,0,0,1,6.28,6.39v-25h7V454.2c0,1.65.75,2.5,2.24,2.55v6.08l-1.8.25a12.13,12.13,0,0,1-1.32.08,5.25,5.25,0,0,1-3.64-1.41,4.23,4.23,0,0,1-1.56-3.24V455a18,18,0,0,1-15.28,8.63Zm1.68-6.08a11.62,11.62,0,0,0,4-.72,15.28,15.28,0,0,0,3.84-2,14.34,14.34,0,0,0,3.12-3,9,9,0,0,0,1.72-3.63v-12a13.23,13.23,0,0,0-2.16-3.81,17.32,17.32,0,0,0-3.24-3.11A15.25,15.25,0,0,0,408,427.2a11.47,11.47,0,0,0-4-.77,12.09,12.09,0,0,0-5.64,1.32,13.78,13.78,0,0,0-4.32,3.53,15.8,15.8,0,0,0-2.76,5,18,18,0,0,0-1,5.8,16.06,16.06,0,0,0,1.12,6,15.75,15.75,0,0,0,3,4.92,14.91,14.91,0,0,0,4.52,3.32A13,13,0,0,0,404.61,457.55Z" transform="translate(0 -1)"/><path d="M454.53,463.63a21.36,21.36,0,0,1-8.64-1.71,20.6,20.6,0,0,1-6.72-4.68,21.35,21.35,0,0,1-4.36-6.92,22.65,22.65,0,0,1-1.56-8.36,22.34,22.34,0,0,1,1.56-8.33,21.26,21.26,0,0,1,4.4-6.88,20.81,20.81,0,0,1,6.76-4.67,21.2,21.2,0,0,1,8.64-1.73,20.57,20.57,0,0,1,15.2,6.44,20.89,20.89,0,0,1,4.2,6.8,22.33,22.33,0,0,1,1.48,8c0,.59,0,1.12,0,1.61a9.61,9.61,0,0,1-.12,1.11H440.69a16.27,16.27,0,0,0,1.44,5.69,14.52,14.52,0,0,0,7.48,7.28,13.1,13.1,0,0,0,5.16,1,13.65,13.65,0,0,0,3.76-.52,15.81,15.81,0,0,0,3.44-1.4,11.81,11.81,0,0,0,2.84-2.15,8.89,8.89,0,0,0,1.88-2.89l6.08,1.69a15.38,15.38,0,0,1-2.84,4.24,19.07,19.07,0,0,1-4.16,3.31,21.05,21.05,0,0,1-5.24,2.2A22.05,22.05,0,0,1,454.53,463.63Zm14.32-24.47a15.06,15.06,0,0,0-4.6-9.77,14.3,14.3,0,0,0-14.92-2.76,13.81,13.81,0,0,0-4.36,2.8,14.21,14.21,0,0,0-3,4.28,15.86,15.86,0,0,0-1.4,5.45Z" transform="translate(0 -1)"/></svg>