<svg width="50" height="50" viewBox="0 0 50 50" fill="none" xmlns="http://www.w3.org/2000/svg">
<path d="M38.1402 16.1074C36.377 16.1074 34.9426 17.5418 34.9426 19.3051C34.9426 21.0683 36.377 22.5027 38.1402 22.5027C39.9035 22.5027 41.3379 21.0683 41.3379 19.3051C41.3379 17.5418 39.9035 16.1074 38.1402 16.1074ZM38.1402 21.2576C37.0636 21.2576 36.1877 20.3817 36.1877 19.3051C36.1877 18.2285 37.0636 17.3526 38.1402 17.3526C39.2168 17.3526 40.0927 18.2285 40.0927 19.3051C40.0927 20.3817 39.2169 21.2576 38.1402 21.2576Z" fill="#373940"/>
<path d="M38.1402 20.1669C38.616 20.1669 39.0017 19.7812 39.0017 19.3054C39.0017 18.8296 38.616 18.4438 38.1402 18.4438C37.6644 18.4438 37.2787 18.8296 37.2787 19.3054C37.2787 19.7812 37.6644 20.1669 38.1402 20.1669Z" fill="#373940"/>
<path d="M7.56054 36.7783C5.79731 36.7783 4.3629 38.2127 4.3629 39.976C4.3629 41.7392 5.79731 43.1736 7.56054 43.1736C9.32378 43.1736 10.7582 41.7392 10.7582 39.976C10.7582 38.2127 9.32378 36.7783 7.56054 36.7783ZM7.56054 41.9285C6.48395 41.9285 5.60804 41.0526 5.60804 39.976C5.60804 38.8994 6.48395 38.0235 7.56054 38.0235C8.63714 38.0235 9.51304 38.8994 9.51304 39.976C9.51304 41.0526 8.63725 41.9285 7.56054 41.9285Z" fill="#373940"/>
<path d="M7.56038 40.8373C8.03619 40.8373 8.42191 40.4516 8.42191 39.9758C8.42191 39.5 8.03619 39.1143 7.56038 39.1143C7.08457 39.1143 6.69885 39.5 6.69885 39.9758C6.69885 40.4516 7.08457 40.8373 7.56038 40.8373Z" fill="#373940"/>
<path d="M16.424 3.71729C14.6607 3.71729 13.2263 5.15169 13.2263 6.91493C13.2263 8.67817 14.6607 10.1126 16.424 10.1126C18.1872 10.1126 19.6216 8.67817 19.6216 6.91493C19.6216 5.15169 18.1872 3.71729 16.424 3.71729ZM16.424 8.86743C15.3474 8.86743 14.4715 7.99153 14.4715 6.91493C14.4715 5.83833 15.3474 4.96243 16.424 4.96243C17.5006 4.96243 18.3765 5.83833 18.3765 6.91493C18.3765 7.99153 17.5006 8.86743 16.424 8.86743Z" fill="#373940"/>
<path d="M16.4242 7.77627C16.9001 7.77627 17.2858 7.39055 17.2858 6.91475C17.2858 6.43894 16.9001 6.05322 16.4242 6.05322C15.9484 6.05322 15.5627 6.43894 15.5627 6.91475C15.5627 7.39055 15.9484 7.77627 16.4242 7.77627Z" fill="#373940"/>
<path d="M30.5739 36.3442H24.127C23.7832 36.3442 23.5045 36.6229 23.5045 36.9668C23.5045 37.3107 23.7832 37.5894 24.127 37.5894H30.5739C30.9178 37.5894 31.1965 37.3107 31.1965 36.9668C31.1965 36.6229 30.9177 36.3442 30.5739 36.3442Z" fill="#373940"/>
<path d="M30.5739 39.4336H24.127C23.7832 39.4336 23.5045 39.7123 23.5045 40.0562C23.5045 40.4001 23.7832 40.6787 24.127 40.6787H30.5739C30.9178 40.6787 31.1965 40.4001 31.1965 40.0562C31.1965 39.7123 30.9177 39.4336 30.5739 39.4336Z" fill="#373940"/>
<path d="M30.5739 42.5225H24.127C23.7832 42.5225 23.5045 42.8011 23.5045 43.145C23.5045 43.4889 23.7832 43.7676 24.127 43.7676H30.5739C30.9178 43.7676 31.1965 43.4889 31.1965 43.145C31.1965 42.8011 30.9177 42.5225 30.5739 42.5225Z" fill="#373940"/>
<path d="M48.3306 14.1832H42.8815V10.1397C42.8815 9.97459 42.8159 9.81623 42.6992 9.69953L33.7983 0.800033C33.6816 0.683329 33.5232 0.617676 33.3581 0.617676H10.9645C10.6206 0.617676 10.3419 0.896362 10.3419 1.24025V30.569H0.622572C0.278686 30.569 0 30.8477 0 31.1916V48.7596C0 49.1035 0.278686 49.3822 0.622572 49.3822H35.4091C35.753 49.3822 36.0316 49.1035 36.0316 48.7596V44.5737H42.2589C42.6028 44.5737 42.8815 44.2951 42.8815 43.9512V24.4272H48.3306C49.2511 24.4272 50 23.6783 50 22.7578V15.8527C50 14.9321 49.2512 14.1832 48.3306 14.1832ZM33.9808 2.74314L40.7558 9.51717H33.9808V2.74314ZM34.7865 48.1371H1.24514V31.8142H34.7865V48.1371ZM41.6364 43.3286H36.0316V31.1916C36.0316 30.8477 35.753 30.569 35.4091 30.569H11.5871V1.86282H32.7356V10.1397C32.7356 10.4836 33.0143 10.7623 33.3582 10.7623H41.6364V14.1832H34.7099C33.7894 14.1832 33.0405 14.9321 33.0405 15.8526V22.7577C33.0405 23.6782 33.7894 24.4271 34.7099 24.4271H41.6364V43.3286ZM48.7549 22.7578C48.7549 22.9918 48.5646 23.1821 48.3306 23.1821H34.7099C34.4759 23.1821 34.2856 22.9918 34.2856 22.7578V15.8527C34.2856 15.6187 34.4759 15.4284 34.7099 15.4284H48.3306C48.5646 15.4284 48.7549 15.6187 48.7549 15.8527V22.7578Z" fill="#373940"/>
<path d="M46.691 17.6079H42.6616C42.3177 17.6079 42.0391 17.8866 42.0391 18.2305C42.0391 18.5744 42.3177 18.8531 42.6616 18.8531H46.691C47.0349 18.8531 47.3136 18.5744 47.3136 18.2305C47.3136 17.8866 47.0349 17.6079 46.691 17.6079Z" fill="#373940"/>
<path d="M46.691 19.7568H42.6616C42.3177 19.7568 42.0391 20.0355 42.0391 20.3794C42.0391 20.7233 42.3177 21.002 42.6616 21.002H46.691C47.0349 21.002 47.3136 20.7233 47.3136 20.3794C47.3136 20.0355 47.0349 19.7568 46.691 19.7568Z" fill="#373940"/>
<path d="M6.23316 29.4818C6.30878 29.75 6.55362 29.9353 6.8323 29.9353C7.11099 29.9353 7.35583 29.75 7.43144 29.4818L8.56339 25.4672C8.5789 25.4122 8.58682 25.3554 8.58682 25.2982V4.18361C8.58682 3.83972 8.30814 3.56104 7.96425 3.56104H5.70035C5.35647 3.56104 5.07778 3.83972 5.07778 4.18361V25.2983C5.07778 25.3555 5.08559 25.4123 5.10121 25.4673L6.23316 29.4818ZM6.52283 25.9209H7.14189L6.8323 27.0188L6.52283 25.9209ZM7.34168 4.80618V24.6757H6.32293V4.80618H7.34168Z" fill="#373940"/>
<path d="M0.622572 29.9354H2.88647C3.23036 29.9354 3.50904 29.6568 3.50904 29.3129V8.19818C3.50904 8.14101 3.50123 8.08419 3.48561 8.02918L2.35366 4.01461C2.27805 3.74634 2.03321 3.56104 1.75452 3.56104C1.47584 3.56104 1.23099 3.74634 1.15538 4.01461L0.0234313 8.02918C0.00781045 8.08419 0 8.14101 0 8.19818V29.3129C0 29.6566 0.278686 29.9354 0.622572 29.9354ZM1.24514 28.6903V8.82075H2.2639V28.6903H1.24514ZM2.06411 7.57561H1.44493L1.75452 6.47773L2.06411 7.57561Z" fill="#373940"/>
</svg>
