<svg width="50" height="50" viewBox="0 0 50 50" fill="none" xmlns="http://www.w3.org/2000/svg">
<path d="M17.7992 22.2471C17.5737 21.8685 17.084 21.7444 16.7055 21.97L7.41095 27.5061C7.16936 27.6499 7.02127 27.9103 7.02127 28.1915C7.02127 28.4727 7.16936 28.7331 7.41085 28.8769L16.7054 34.413C16.8334 34.4893 16.974 34.5256 17.113 34.5256C17.3849 34.5256 17.65 34.3864 17.7991 34.1359C18.0247 33.7573 17.9005 33.2676 17.522 33.0422L9.37829 28.1915L17.522 23.3409C17.9006 23.1154 18.0248 22.6258 17.7992 22.2471Z" fill="#373940"/>
<path d="M32.201 34.1358C32.3503 34.3865 32.6153 34.5255 32.8872 34.5255C33.0261 34.5255 33.1668 34.4892 33.2948 34.4129L42.5893 28.8769C42.8309 28.7329 42.9789 28.4726 42.9789 28.1915C42.9789 27.9103 42.8308 27.6499 42.5893 27.506L33.2948 21.97C32.9162 21.7444 32.4264 21.8685 32.201 22.2471C31.9755 22.6257 32.0997 23.1154 32.4782 23.3408L40.6219 28.1915L32.4782 33.0421C32.0995 33.2675 31.9754 33.7572 32.201 34.1358Z" fill="#373940"/>
<path d="M28.0551 22.2106L20.6197 33.2827C20.3741 33.6485 20.4714 34.1442 20.8373 34.39C20.9739 34.4817 21.1284 34.5255 21.2814 34.5255C21.5383 34.5255 21.7906 34.4016 21.9445 34.1723L29.3799 23.1002C29.6256 22.7344 29.5282 22.2387 29.1624 21.9929C28.7963 21.7473 28.3007 21.8449 28.0551 22.2106Z" fill="#373940"/>
<path d="M49.2021 2.39355H0.797872C0.357128 2.39355 0 2.75079 0 3.19143V46.8084C0 47.2491 0.357128 47.6063 0.797872 47.6063H49.2021C49.6429 47.6063 50 47.2491 50 46.8084V38.2978C50 37.8572 49.6429 37.4999 49.2021 37.4999C48.7614 37.4999 48.4043 37.8572 48.4043 38.2978V46.0106H1.59574V10.3723H48.4043V35.1063C48.4043 35.547 48.7614 35.9042 49.2021 35.9042C49.6429 35.9042 50 35.547 50 35.1063V3.19143C50 2.75079 49.6429 2.39355 49.2021 2.39355ZM1.59574 3.9893H31.117V8.77653H1.59574V3.9893ZM32.7128 8.77653V3.9893H48.4043V8.77653H32.7128Z" fill="#373940"/>
<path d="M40.5851 5.53174C40.1158 5.53174 39.734 5.91355 39.734 6.3828C39.734 6.85206 40.1158 7.23387 40.5851 7.23387C41.0544 7.23387 41.4362 6.85206 41.4362 6.3828C41.4362 5.91355 41.0544 5.53174 40.5851 5.53174Z" fill="#373940"/>
<path d="M36.2234 5.53174C35.7542 5.53174 35.3723 5.91355 35.3723 6.3828C35.3723 6.85206 35.7542 7.23387 36.2234 7.23387C36.6927 7.23387 37.0745 6.85206 37.0745 6.3828C37.0745 5.91355 36.6927 5.53174 36.2234 5.53174Z" fill="#373940"/>
<path d="M44.9468 5.53174C44.4776 5.53174 44.0957 5.91355 44.0957 6.3828C44.0957 6.85206 44.4776 7.23387 44.9468 7.23387C45.4161 7.23387 45.7979 6.85206 45.7979 6.3828C45.7979 5.91355 45.4161 5.53174 44.9468 5.53174Z" fill="#373940"/>
</svg>
