<svg width="75" height="75" viewBox="0 0 75 75" fill="none" xmlns="http://www.w3.org/2000/svg">
<g clip-path="url(#clip0)">
<path d="M74.8326 51.5315C74.3124 49.6355 72.7227 48.2246 70.7782 47.933V19.4334H73.2617C73.9474 19.4334 74.5034 18.8774 74.5034 18.1917V5.77444C74.5034 5.0881 73.9474 4.53271 73.2617 4.53271H18.6258C17.9401 4.53271 17.3841 5.0881 17.3841 5.77444V18.1917C17.3841 18.8774 17.9401 19.4334 18.6258 19.4334H21.1093V44.2679H19.8676C16.7857 44.2606 13.7669 45.144 11.1755 46.8119V40.5427C11.1755 39.8563 10.6195 39.301 9.93378 39.301H1.24172C0.555983 39.301 -3.8147e-06 39.8563 -3.8147e-06 40.5427V69.1023C-3.8147e-06 69.7881 0.555983 70.3441 1.24172 70.3441H9.93378C10.6195 70.3441 11.1755 69.7881 11.1755 69.1023V62.8337C13.7675 64.5004 16.7857 65.3838 19.8676 65.3772H40.2566C41.6693 65.3747 43.0753 65.1892 44.4401 64.8254L71.3245 57.6237C73.9698 56.9028 75.5372 54.1816 74.8326 51.5315ZM19.8676 7.01616H72.02V16.9499H19.8676V7.01616ZM23.5927 19.4334H68.2948V48.1464L53.8834 52.0111C53.2898 50.5959 52.079 49.5331 50.599 49.1274L33.8679 44.6401C32.9257 44.3922 31.9556 44.2667 30.9812 44.2679H23.5927V19.4334ZM8.69206 67.8606H2.48344V41.7844H8.69206V67.8606ZM70.68 55.2245L43.8005 62.4263C42.6442 62.7349 41.4534 62.8919 40.2566 62.8937H19.8676C16.9112 62.9004 14.033 61.9412 11.6721 60.1617L11.1755 59.7894V49.8556L11.6721 49.4827C14.033 47.7032 16.9112 46.7434 19.8676 46.7513H30.9812C31.7397 46.7507 32.4958 46.8489 33.23 47.0429L49.9557 51.5266C50.944 51.7988 51.6673 52.6459 51.7801 53.6651C51.7934 53.716 51.8098 53.7663 51.8298 53.8154C51.8153 53.8688 51.8044 53.9227 51.7971 53.9779C51.7983 54.1798 51.771 54.3811 51.7152 54.5751C51.423 55.6574 50.4426 56.4098 49.3215 56.4117C49.1026 56.4135 48.8856 56.3856 48.6746 56.3298L38.1199 53.4995C37.687 53.371 37.2184 53.4874 36.8958 53.8039C36.5738 54.1204 36.4483 54.5867 36.569 55.022C36.6896 55.4567 37.0371 55.7926 37.4766 55.8975L48.0313 58.729C48.4527 58.8399 48.8874 58.8957 49.3239 58.8951C51.5564 58.8939 53.5129 57.4005 54.1029 55.2469C54.172 54.9977 54.2187 54.7431 54.2435 54.486L69.3813 50.4268C69.4892 50.3995 69.6062 50.3716 69.7166 50.3534C70.9528 50.1939 72.1151 50.9755 72.4347 52.1796C72.4905 52.3894 72.5183 52.6058 72.5165 52.8229C72.5183 53.947 71.7653 54.9316 70.68 55.2245Z" fill="#373940" fill-opacity="0.5"/>
<path d="M39.7353 24.4H52.1525C52.8382 24.4 53.3942 23.844 53.3942 23.1582C53.3942 22.4719 52.8382 21.9165 52.1525 21.9165H39.7353C39.0495 21.9165 38.4935 22.4719 38.4935 23.1582C38.4935 23.844 39.0495 24.4 39.7353 24.4Z" fill="#373940" fill-opacity="0.5"/>
</g>
<defs>
<clipPath id="clip0">
<rect width="75" height="75" fill="white"/>
</clipPath>
</defs>
</svg>
