<svg width="50" height="50" viewBox="0 0 50 50" fill="none" xmlns="http://www.w3.org/2000/svg">
<g clip-path="url(#clip0)">
<path d="M20.1785 0H7.19362C6.73432 0 6.36325 0.371853 6.36325 0.831154V49.1696C6.36325 49.6289 6.7351 50.0008 7.1944 50.0008H20.1793C20.6386 50.0008 21.0105 49.6289 21.0105 49.1696V0.831154C21.0097 0.371853 20.6378 0 20.1785 0V0ZM19.3474 48.3385H8.02477V45.0824H15.2964C15.7557 45.0824 16.1275 44.7106 16.1275 44.2513C16.1275 43.7919 15.7557 43.4201 15.2964 43.4201H8.02477V40.3736H12.0758C12.5351 40.3736 12.9069 40.0017 12.9069 39.5424C12.9069 39.0831 12.5351 38.7113 12.0758 38.7113H8.02477V35.5167H15.2964C15.7557 35.5167 16.1275 35.1448 16.1275 34.6855C16.1275 34.2262 15.7557 33.8543 15.2964 33.8543H8.02477V30.6085H12.0758C12.5351 30.6085 12.9069 30.2367 12.9069 29.7774C12.9069 29.3181 12.5351 28.9462 12.0758 28.9462H8.02477V25.8296H15.2964C15.7557 25.8296 16.1275 25.4577 16.1275 24.9984C16.1275 24.5391 15.7557 24.1673 15.2964 24.1673H8.02477V21.0593H12.0758C12.5351 21.0593 12.9069 20.6875 12.9069 20.2282C12.9069 19.7689 12.5351 19.397 12.0758 19.397H8.02477V16.2032H15.2964C15.7557 16.2032 16.1275 15.8313 16.1275 15.372C16.1275 14.9127 15.7557 14.5409 15.2964 14.5409H8.02477V11.3636H12.0758C12.5351 11.3636 12.9069 10.9917 12.9069 10.5324C12.9069 10.0731 12.5351 9.70126 12.0758 9.70126H8.02477V6.71698H15.2964C15.7557 6.71698 16.1275 6.34513 16.1275 5.88583C16.1275 5.42653 15.7557 5.05467 15.2964 5.05467H8.02477V1.66231H19.3474V48.3385Z" fill="#373940"/>
<path d="M43.636 19.4993C43.6344 19.3779 43.6053 19.2661 43.558 19.1629C43.5556 19.1566 43.5564 19.1502 43.5533 19.1439L36.7425 5.18214C36.191 4.31869 34.8226 4.23518 34.1766 5.26565L27.4131 19.1432C27.41 19.1495 27.4115 19.1558 27.4084 19.1621C27.3635 19.2605 27.3375 19.3677 27.3335 19.4819C27.3335 19.4898 27.3288 19.4977 27.3288 19.5056C27.3288 19.5063 27.328 19.5063 27.328 19.5071V46.7611C27.328 46.9785 27.4139 47.1881 27.5667 47.3441L29.9302 49.7509C30.0862 49.91 30.3005 49.999 30.5227 49.999H40.2483C40.4595 49.999 40.6635 49.9179 40.8179 49.7737L43.376 47.3669C43.543 47.2094 43.6376 46.9904 43.6376 46.7619V19.5079C43.6376 19.5071 43.6376 19.5071 43.6376 19.5071C43.6368 19.504 43.636 19.5016 43.636 19.4993V19.4993ZM35.4828 6.37884L37.7872 11.1058H33.1784L35.4828 6.37884V6.37884ZM32.3685 12.7681H38.534C38.5545 12.7681 38.5711 12.7578 38.5915 12.7563L41.5987 18.9257L35.3693 20.3178L29.3638 18.9328L32.3685 12.7681ZM28.9903 46.4231V20.5526L34.535 21.8312V48.3383H30.8717L28.9903 46.4231ZM39.919 48.3383H36.1973V21.8359L41.9752 20.5455V46.4042L39.919 48.3383Z" fill="#373940"/>
</g>
<defs>
<clipPath id="clip0">
<rect width="50" height="50" fill="white"/>
</clipPath>
</defs>
</svg>
