<svg width="75" height="75" viewBox="0 0 75 75" fill="none" xmlns="http://www.w3.org/2000/svg">
<path d="M72.3825 31.9908C71.7483 30.2073 69.7403 25.2255 65.5741 20.1942C62.5747 16.5721 59.0757 13.684 55.1741 11.61C52.0176 9.932 48.5942 8.7928 44.9487 8.19514C44.6434 5.06713 41.9992 2.61426 38.7924 2.61426C35.5866 2.61426 32.943 5.06566 32.6364 8.19221C29.2713 8.74373 26.0959 9.75871 23.1472 11.2306C19.3328 13.1346 15.8819 15.8057 12.8904 19.1699C11.9481 20.2295 13.5894 21.6903 14.5322 20.6302C19.7639 14.7468 26.2464 11.2624 33.8495 10.2282C33.855 10.2275 33.8605 10.2276 33.866 10.2267C40.714 9.29114 47.9581 10.2752 54.0991 13.5269C57.741 15.4552 61.0149 18.1489 63.83 21.5332C67.2419 25.6349 69.1556 29.7848 69.992 31.8904H7.59226C8.25993 30.2074 9.61446 27.2203 11.8686 24.0037C12.6777 22.8491 10.8881 21.5741 10.0694 22.7424C7.20158 26.8346 5.72898 30.5137 5.20281 31.9907C3.7015 32.3607 2.58471 33.7179 2.58471 35.3317C2.58471 37.2293 4.1285 38.7729 6.02605 38.7729H22.617L13.0136 51.127H1.09863C0.491893 51.127 0 51.6189 0 52.2257C0 52.2257 0 71.2032 0 71.2861C0 71.6059 0.145898 71.8996 0.373241 72.1028C0.568504 72.2774 0.823971 72.3851 1.09863 72.3851C1.14155 72.3851 1.18461 72.3826 1.22768 72.3774L13.6803 70.905C14.2332 70.8397 14.6498 70.3708 14.6498 69.814V65.7331L40.736 59.2894C41.5393 59.1412 42.2694 58.7593 42.8497 58.1835C42.8635 58.1698 42.8768 58.1559 42.8899 58.1416L56.1956 43.467C57.4561 42.1967 57.6992 40.2894 56.9223 38.7729H71.5587C73.4562 38.7729 75 37.2291 75 35.3317C75 33.718 73.8833 32.361 72.3825 31.9908ZM42.3173 7.86087C40.8063 7.72522 39.288 7.67674 37.7714 7.71526C36.9763 7.73518 36.1825 7.78206 35.39 7.85017C35.2292 7.86409 35.0675 7.8761 34.9077 7.89192C35.3199 6.12855 36.9051 4.81151 38.7923 4.81151C40.6794 4.81151 42.2647 6.12855 42.6769 7.89192C42.5578 7.88006 42.4371 7.87156 42.3173 7.86087ZM12.4524 68.8377L2.19726 70.0503V53.3243H12.4524V68.8377ZM54.6256 41.9296C54.6119 41.9432 54.5985 41.9572 54.5856 41.9714L41.2837 56.6417C41.0172 56.8991 40.6838 57.0684 40.3181 57.1322C40.2929 57.1365 40.268 57.1418 40.2432 57.1478L14.6497 63.4698V52.6024C14.6497 52.6024 24.9982 39.2896 25.0083 39.2765C25.6111 38.5016 26.9557 38.6923 27.5767 39.3092C28.2147 39.9429 28.3054 40.9368 27.7925 41.6724C27.6904 41.8189 22.0446 50.4939 22.0379 50.5045C21.5684 51.2258 22.1098 52.1973 22.9621 52.1973H38.5844C38.8743 52.1973 39.1525 52.0827 39.3583 51.8785C39.3583 51.8785 52.0107 39.3227 52.0246 39.3087C52.74 38.5987 53.9264 38.604 54.6355 39.3187C55.3526 40.0413 55.348 41.2126 54.6256 41.9296ZM29.8708 38.7729H36.2571L25.0287 49.9156C25.0287 49.9156 29.49 43.0798 29.595 42.9291C30.4711 41.6724 30.5413 40.0744 29.8708 38.7729ZM31.5377 50H28.0631L38.8367 39.3087C39.1847 38.9633 39.6464 38.773 40.137 38.773C40.8359 38.773 41.4974 39.1867 41.7992 39.8169L31.5377 50ZM45.4305 39.3087C45.7787 38.9633 46.2404 38.773 46.7308 38.773C47.4329 38.773 48.0899 39.1841 48.3931 39.8169L38.1316 50.0002H34.657L45.4305 39.3087ZM71.5584 36.5756H6.02605C5.34007 36.5756 4.78196 36.0177 4.78196 35.3317C4.78196 34.6457 5.34007 34.0878 6.02605 34.0878H71.5584C72.2443 34.0878 72.8024 34.6459 72.8024 35.3317C72.8024 36.0175 72.2443 36.5756 71.5584 36.5756Z" fill="#373940" fill-opacity="0.5"/>
</svg>
