<svg width="50" height="50" viewBox="0 0 50 50" fill="none" xmlns="http://www.w3.org/2000/svg">
<path d="M35.6934 11.5723H14.209C13.8046 11.5723 13.4766 11.9003 13.4766 12.3047C13.4766 12.709 13.8046 13.0371 14.209 13.0371H35.6934C36.0981 13.0371 36.4258 12.709 36.4258 12.3047C36.4258 11.9003 36.0981 11.5723 35.6934 11.5723Z" fill="#373940"/>
<path d="M14.209 16.2959H26.767C27.1713 16.2959 27.4994 15.9678 27.4994 15.5635C27.4994 15.1591 27.1713 14.8311 26.767 14.8311H14.209C13.8046 14.8311 13.4766 15.1591 13.4766 15.5635C13.4766 15.9678 13.8046 16.2959 14.209 16.2959Z" fill="#373940"/>
<path d="M35.6934 38.1963H14.209C13.8046 38.1963 13.4766 38.5244 13.4766 38.9287C13.4766 39.3331 13.8046 39.6611 14.209 39.6611H35.6934C36.0981 39.6611 36.4258 39.3331 36.4258 38.9287C36.4258 38.5244 36.0981 38.1963 35.6934 38.1963Z" fill="#373940"/>
<path d="M35.6934 41.4551H14.209C13.8046 41.4551 13.4766 41.7831 13.4766 42.1875C13.4766 42.5919 13.8046 42.9199 14.209 42.9199H35.6934C36.0981 42.9199 36.4258 42.5919 36.4258 42.1875C36.4258 41.7831 36.0981 41.4551 35.6934 41.4551Z" fill="#373940"/>
<path d="M9.47266 4.58984C9.47266 5.80139 10.4584 6.78711 11.6699 6.78711C12.8815 6.78711 13.8672 5.80139 13.8672 4.58984C13.8672 3.3783 12.8815 2.39258 11.6699 2.39258C10.4584 2.39258 9.47266 3.3783 9.47266 4.58984ZM12.4023 4.58984C12.4023 4.99382 12.0739 5.32227 11.6699 5.32227C11.2659 5.32227 10.9375 4.99382 10.9375 4.58984C10.9375 4.18587 11.2659 3.85742 11.6699 3.85742C12.0739 3.85742 12.4023 4.18587 12.4023 4.58984Z" fill="#373940"/>
<path d="M15.332 4.58984C15.332 5.80139 16.3177 6.78711 17.5293 6.78711C18.7408 6.78711 19.7266 5.80139 19.7266 4.58984C19.7266 3.3783 18.7408 2.39258 17.5293 2.39258C16.3177 2.39258 15.332 3.3783 15.332 4.58984ZM18.2617 4.58984C18.2617 4.99382 17.9333 5.32227 17.5293 5.32227C17.1253 5.32227 16.7969 4.99382 16.7969 4.58984C16.7969 4.18587 17.1253 3.85742 17.5293 3.85742C17.9333 3.85742 18.2617 4.18587 18.2617 4.58984Z" fill="#373940"/>
<path d="M21.1914 4.58984C21.1914 5.80139 22.1771 6.78711 23.3887 6.78711C24.6002 6.78711 25.5859 5.80139 25.5859 4.58984C25.5859 3.3783 24.6002 2.39258 23.3887 2.39258C22.1771 2.39258 21.1914 3.3783 21.1914 4.58984ZM24.1211 4.58984C24.1211 4.99382 23.7926 5.32227 23.3887 5.32227C22.9847 5.32227 22.6562 4.99382 22.6562 4.58984C22.6562 4.18587 22.9847 3.85742 23.3887 3.85742C23.7926 3.85742 24.1211 4.18587 24.1211 4.58984Z" fill="#373940"/>
<path d="M42.7246 0H7.17773C6.77338 0 6.44531 0.328064 6.44531 0.732422V43.7256C6.44531 44.1299 6.77338 44.458 7.17773 44.458C7.58209 44.458 7.91016 44.1299 7.91016 43.7256V9.27734H37.4512C37.8559 9.27734 38.1836 8.94928 38.1836 8.54492C38.1836 8.14056 37.8559 7.8125 37.4512 7.8125H7.91016V1.46484H41.9922V7.8125H40.6738C40.2691 7.8125 39.9414 8.14056 39.9414 8.54492C39.9414 8.94928 40.2691 9.27734 40.6738 9.27734H41.9922V48.5352H7.91016V46.8628C7.91016 46.4584 7.58209 46.1304 7.17773 46.1304C6.77338 46.1304 6.44531 46.4584 6.44531 46.8628V49.2676C6.44531 49.6719 6.77338 50 7.17773 50H42.7246C43.1293 50 43.457 49.6719 43.457 49.2676V0.732422C43.457 0.328064 43.1293 0 42.7246 0Z" fill="#373940"/>
<path d="M16.0801 29.4891C16.0877 30.1113 16.5958 30.6152 17.2195 30.6152H17.5438V34.2773C17.5438 35.4889 18.5295 36.4746 19.7411 36.4746C20.953 36.4746 21.9383 35.4889 21.9383 34.2773V30.6152H22.2633C22.4663 30.6152 22.6566 30.5614 22.8218 30.468L28.2806 32.2307C28.3554 32.2548 28.4313 32.2666 28.5057 32.2666C28.8151 32.2666 29.1023 32.069 29.2027 31.7589C29.327 31.3739 29.1157 30.9612 28.7308 30.8368L23.4035 29.1164V22.4456L33.4961 19.1864V32.3761L31.7051 31.7974C31.3202 31.6734 30.9074 31.8844 30.7831 32.2696C30.6587 32.6545 30.8701 33.0673 31.255 33.1917L33.7162 33.9863C33.812 34.0175 33.9108 34.0328 34.0096 34.0328C34.2079 34.0328 34.4048 33.971 34.5688 33.852C34.8145 33.6738 34.9609 33.3862 34.9609 33.0829V18.4795C34.9609 18.1762 34.8145 17.8886 34.5688 17.7105C34.3231 17.5323 34.0042 17.482 33.7185 17.5754L22.8218 21.0945C22.6566 21.001 22.4663 20.9472 22.2633 20.9472H17.2195C16.5958 20.9472 16.0881 21.4508 16.0801 22.0729C15.3114 22.1996 14.6027 22.5608 14.0408 23.1228C13.3305 23.833 12.9395 24.7772 12.9395 25.7812C12.9395 27.6436 14.3005 29.1927 16.0801 29.4891ZM20.4735 34.2773C20.4735 34.6813 20.145 35.0097 19.7411 35.0097C19.3375 35.0097 19.0086 34.6813 19.0086 34.2773V30.6152H20.4735V34.2773ZM17.5442 22.4121H21.9387V29.1504H17.5442V22.4121ZM15.0764 24.1584C15.3595 23.8754 15.704 23.6759 16.0793 23.5714V27.9903C15.1142 27.7191 14.4043 26.8318 14.4043 25.7812C14.4043 25.1682 14.6431 24.5918 15.0764 24.1584Z" fill="#373940"/>
</svg>
