<svg width="75" height="75" viewBox="0 0 75 75" fill="none" xmlns="http://www.w3.org/2000/svg">
<path d="M74.8399 56.9061C74.2102 54.8401 73.078 52.9626 71.5443 51.4419C69.1016 48.9857 65.7776 47.609 62.3136 47.6184C60.5433 47.6193 58.7913 47.9785 57.1633 48.6742L44.3231 35.834L61.372 18.9135L65.4096 18.7994C65.898 18.7846 66.3447 18.5206 66.5937 18.1003L72.3718 8.38455C72.7076 7.82386 72.6193 7.1066 72.1578 6.64399L67.1644 1.65059C66.7018 1.18906 65.9845 1.10078 65.4238 1.43659L55.7081 7.21467C55.2877 7.46362 55.0238 7.91035 55.009 8.39882L54.8949 12.4221L37.8888 29.3996L26.2185 17.7293C27.4438 10.6246 22.6776 3.87176 15.5729 2.64642C12.281 2.0786 8.89654 2.79444 6.11646 4.64663C5.46376 5.08801 5.29238 5.97488 5.73376 6.62759C5.85788 6.81109 6.02302 6.96321 6.21633 7.072L12.6935 10.6815C14.1202 11.4947 14.4055 13.9201 13.2499 15.9745C12.0943 18.0289 9.88292 19.0847 8.44196 18.2858L2.43561 15.0329C1.74528 14.6531 0.877672 14.9049 0.497996 15.5952C0.367097 15.8329 0.30682 16.1031 0.324297 16.374C0.775664 23.5695 6.97479 29.0365 14.1703 28.5852C15.6569 28.4919 17.1166 28.1449 18.486 27.5592L29.1006 38.1738L24.5066 42.7677L23.4651 41.7405C22.3122 40.6371 20.495 40.6371 19.342 41.7405L17.9153 43.1672C16.8284 44.2254 16.7595 45.949 17.7584 47.0905L0.880704 63.9397C-0.257791 65.0292 -0.29756 66.8355 0.791893 67.974C0.820783 68.0043 0.850387 68.0339 0.880704 68.0628L5.7029 72.885C6.79236 74.0235 8.59872 74.0633 9.73722 72.9738C9.76753 72.9449 9.79714 72.9153 9.82603 72.885L26.718 56.0073C27.8595 57.0062 29.5831 56.9374 30.6414 55.8504L32.0681 54.4237C33.2066 53.3343 33.2463 51.5279 32.1569 50.3894C32.128 50.3591 32.0984 50.3295 32.0681 50.3006L31.0266 49.2591L35.592 44.5938L49.4308 58.4327C48.2353 65.5426 53.0297 72.2753 60.1395 73.4709C64.3508 74.179 68.6421 72.7827 71.6301 69.732C72.154 69.1435 72.102 68.2419 71.5135 67.7177C71.3615 67.5824 71.1823 67.4811 70.9881 67.4208L62.9558 65.2665C62.1687 65.0135 61.5455 64.4062 61.2723 63.6258C60.855 62.5499 60.8049 61.3663 61.1297 60.2589C61.7289 58.019 63.6264 56.4211 65.2243 56.8491L73.1709 58.9891C73.2986 59.0076 73.4284 59.0076 73.5561 58.9891C74.344 58.9987 74.9905 58.3678 74.9999 57.5799C75.0026 57.3456 74.9478 57.1141 74.8399 56.9061ZM57.2774 14.0057C57.5342 13.7471 57.6823 13.3999 57.6912 13.0355L57.8053 9.22629L65.8946 4.41836L69.3187 7.84241L64.6106 15.9175L60.73 16.0601C60.3657 16.069 60.0185 16.2171 59.7599 16.4739L42.3543 33.8652L39.9004 31.4113L57.2774 14.0057ZM7.79995 70.8591L2.90642 65.9941L19.8697 49.0736L22.3236 51.5275L24.6634 53.9529L7.79995 70.8591ZM28.6724 53.7389L26.7892 51.8414L26.0615 51.1138L20.0695 45.0789L21.4961 43.6522L30.0563 52.3265L28.6724 53.7389ZM28.9434 47.2332L26.4895 44.7793L31.0835 40.1854L33.5374 42.6393L28.9434 47.2332ZM65.9231 54.0956C65.4998 53.9818 65.0632 53.9242 64.6249 53.9244C61.5145 54.1755 58.9472 56.4574 58.3332 59.517C57.8463 61.2351 57.9416 63.066 58.6043 64.7244C59.2158 66.3203 60.542 67.5357 62.1852 68.0058L67.4925 69.4324C62.6528 72.3163 56.3916 70.7309 53.5078 65.8914C52.1533 63.6185 51.7351 60.9083 52.3411 58.3328C52.4497 57.8538 52.3042 57.3525 51.9559 57.006L19.7984 24.82C19.3418 24.3911 18.659 24.3101 18.1149 24.6202C16.6417 25.3976 15.0012 25.8042 13.3355 25.8044C9.04313 25.8081 5.20909 23.1208 3.74817 19.0847L7.00101 20.8966C7.75929 21.3212 8.61441 21.5423 9.48344 21.5386C12.125 21.3865 14.4875 19.844 15.6895 17.4868C17.6298 14.02 16.8737 9.89684 14.0203 8.29895L9.86865 5.94492C15.1741 4.04974 21.0112 6.81448 22.9064 12.1198C23.5641 13.9613 23.6788 15.9529 23.2367 17.8577C23.1281 18.3368 23.2736 18.8381 23.6219 19.1846L55.8507 51.3991C56.2912 51.8402 56.9671 51.9443 57.52 51.6559C58.9934 50.8791 60.6337 50.4727 62.2994 50.4718C65.9121 50.4689 69.2561 52.3798 71.0878 55.4937L65.9231 54.0956Z" fill="#373940" fill-opacity="0.5"/>
</svg>
