<svg width="67" height="36" viewBox="0 0 67 36" fill="none" xmlns="http://www.w3.org/2000/svg">
<path d="M13 8.33664L26 2.49854V5.94745L16.3243 9.89733L26 14.0591V17.4888L13 11.7085V8.33664Z" fill="#373940"/>
<path d="M54 8.33664L40.5 2.49854V5.94745L50.5479 9.89733L40.5 14.0591V17.4888L54 11.7085V8.33664Z" fill="#373940"/>
<path d="M32.1313 19.9871H29.5L34.3508 0H37L32.1313 19.9871Z" fill="#373940"/>
<path d="M6.048 24.0628C5.808 23.7908 5.488 23.5708 5.088 23.4028C4.688 23.2348 4.232 23.1508 3.72 23.1508C2.968 23.1508 2.42 23.2948 2.076 23.5828C1.732 23.8628 1.56 24.2468 1.56 24.7348C1.56 24.9908 1.604 25.2028 1.692 25.3708C1.788 25.5308 1.932 25.6708 2.124 25.7908C2.316 25.9108 2.56 26.0148 2.856 26.1028C3.16 26.1908 3.516 26.2788 3.924 26.3668C4.38 26.4628 4.788 26.5708 5.148 26.6908C5.516 26.8108 5.828 26.9628 6.084 27.1468C6.34 27.3228 6.536 27.5388 6.672 27.7948C6.808 28.0508 6.876 28.3708 6.876 28.7548C6.876 29.1468 6.8 29.4868 6.648 29.7748C6.496 30.0628 6.284 30.3028 6.012 30.4948C5.74 30.6868 5.416 30.8308 5.04 30.9268C4.664 31.0148 4.252 31.0588 3.804 31.0588C2.484 31.0588 1.344 30.6468 0.384 29.8228L0.804 29.1388C0.956 29.2988 1.136 29.4508 1.344 29.5948C1.56 29.7388 1.796 29.8668 2.052 29.9788C2.316 30.0828 2.596 30.1668 2.892 30.2308C3.188 30.2868 3.5 30.3148 3.828 30.3148C4.508 30.3148 5.036 30.1948 5.412 29.9548C5.796 29.7068 5.988 29.3348 5.988 28.8388C5.988 28.5748 5.932 28.3548 5.82 28.1788C5.716 27.9948 5.556 27.8388 5.34 27.7108C5.124 27.5748 4.856 27.4588 4.536 27.3628C4.216 27.2668 3.844 27.1708 3.42 27.0748C2.972 26.9708 2.58 26.8628 2.244 26.7508C1.908 26.6388 1.624 26.4988 1.392 26.3308C1.16 26.1628 0.984 25.9628 0.864 25.7308C0.752 25.4908 0.696 25.1988 0.696 24.8548C0.696 24.4628 0.768 24.1148 0.912 23.8108C1.064 23.4988 1.276 23.2428 1.548 23.0428C1.82 22.8348 2.14 22.6788 2.508 22.5748C2.876 22.4628 3.284 22.4068 3.732 22.4068C4.3 22.4068 4.804 22.4948 5.244 22.6708C5.692 22.8388 6.096 23.0788 6.456 23.3908L6.048 24.0628ZM13.4451 30.9868H12.6291V27.4948C12.6291 26.7828 12.5051 26.2508 12.2571 25.8988C12.0171 25.5468 11.6611 25.3708 11.1891 25.3708C10.9571 25.3708 10.7251 25.4188 10.4931 25.5148C10.2691 25.6028 10.0571 25.7268 9.85706 25.8868C9.65706 26.0468 9.48106 26.2348 9.32906 26.4508C9.18506 26.6668 9.07706 26.9028 9.00506 27.1588V30.9868H8.18906V22.2268H9.00506V26.1508C9.25306 25.6788 9.59706 25.3068 10.0371 25.0348C10.4771 24.7628 10.9531 24.6268 11.4651 24.6268C11.8251 24.6268 12.1291 24.6948 12.3771 24.8308C12.6251 24.9588 12.8291 25.1428 12.9891 25.3828C13.1491 25.6148 13.2651 25.8988 13.3371 26.2348C13.4091 26.5628 13.4451 26.9268 13.4451 27.3268V30.9868ZM15.3811 32.9068C15.4451 32.9148 15.5051 32.9188 15.5611 32.9188C15.6251 32.9268 15.6851 32.9308 15.7411 32.9308C15.8851 32.9308 15.9971 32.9108 16.0771 32.8708C16.1651 32.8308 16.2491 32.7428 16.3291 32.6068C16.4091 32.4708 16.4971 32.2748 16.5931 32.0188C16.6971 31.7628 16.8411 31.4188 17.0251 30.9868L14.3011 24.7348H15.1411L17.4571 30.2308L19.6051 24.7348H20.3851L17.1451 32.7988C17.0571 33.0308 16.9091 33.2308 16.7011 33.3988C16.5011 33.5748 16.2251 33.6628 15.8731 33.6628C15.7931 33.6628 15.7171 33.6588 15.6451 33.6508C15.5731 33.6508 15.4851 33.6428 15.3811 33.6268V32.9068ZM21.525 30.9868V24.7348H22.341V30.9868H21.525ZM21.525 23.4268V22.2268H22.341V23.4268H21.525ZM25.7103 31.1068C25.4143 31.1068 25.1383 31.0588 24.8823 30.9628C24.6343 30.8588 24.4143 30.7188 24.2223 30.5428C24.0383 30.3668 23.8943 30.1628 23.7903 29.9308C23.6863 29.6908 23.6343 29.4348 23.6343 29.1628C23.6343 28.8908 23.6983 28.6388 23.8263 28.4068C23.9543 28.1748 24.1343 27.9748 24.3663 27.8068C24.5983 27.6388 24.8743 27.5108 25.1943 27.4228C25.5143 27.3268 25.8663 27.2788 26.2503 27.2788C26.5703 27.2788 26.8943 27.3068 27.2223 27.3628C27.5503 27.4188 27.8423 27.4988 28.0983 27.6028V27.0388C28.0983 26.4868 27.9423 26.0508 27.6303 25.7308C27.3183 25.4028 26.8863 25.2388 26.3343 25.2388C26.0143 25.2388 25.6863 25.3028 25.3503 25.4308C25.0143 25.5588 24.6743 25.7428 24.3303 25.9828L24.0423 25.4428C24.8503 24.8988 25.6343 24.6268 26.3943 24.6268C27.1783 24.6268 27.7943 24.8468 28.2423 25.2868C28.6903 25.7268 28.9143 26.3348 28.9143 27.1108V29.9308C28.9143 30.1548 29.0143 30.2668 29.2143 30.2668V30.9868C29.0783 31.0108 28.9743 31.0228 28.9023 31.0228C28.6943 31.0228 28.5303 30.9708 28.4103 30.8668C28.2983 30.7628 28.2383 30.6188 28.2303 30.4348L28.2063 29.9428C27.9183 30.3188 27.5543 30.6068 27.1143 30.8068C26.6823 31.0068 26.2143 31.1068 25.7103 31.1068ZM25.9023 30.4828C26.3263 30.4828 26.7143 30.4028 27.0663 30.2428C27.4263 30.0828 27.6983 29.8708 27.8823 29.6068C27.9543 29.5348 28.0063 29.4588 28.0383 29.3788C28.0783 29.2908 28.0983 29.2108 28.0983 29.1388V28.1188C27.8263 28.0148 27.5423 27.9348 27.2463 27.8788C26.9583 27.8228 26.6623 27.7948 26.3583 27.7948C25.7823 27.7948 25.3143 27.9148 24.9543 28.1548C24.5943 28.3948 24.4143 28.7108 24.4143 29.1028C24.4143 29.2948 24.4503 29.4748 24.5223 29.6428C24.6023 29.8108 24.7063 29.9588 24.8343 30.0868C24.9703 30.2068 25.1303 30.3028 25.3143 30.3748C25.4983 30.4468 25.6943 30.4828 25.9023 30.4828ZM35.9333 30.9868H35.1173V27.4948C35.1173 26.7508 35.0053 26.2108 34.7813 25.8748C34.5653 25.5388 34.2293 25.3708 33.7733 25.3708C33.5333 25.3708 33.2933 25.4148 33.0533 25.5028C32.8133 25.5908 32.5893 25.7148 32.3813 25.8748C32.1813 26.0348 32.0013 26.2268 31.8413 26.4508C31.6813 26.6668 31.5653 26.9028 31.4933 27.1588V30.9868H30.6773V24.7348H31.4213V26.1508C31.6773 25.6948 32.0413 25.3268 32.5133 25.0468C32.9933 24.7668 33.5133 24.6268 34.0733 24.6268C34.4173 24.6268 34.7093 24.6908 34.9493 24.8188C35.1893 24.9468 35.3813 25.1268 35.5253 25.3588C35.6693 25.5908 35.7733 25.8748 35.8373 26.2108C35.9013 26.5468 35.9333 26.9188 35.9333 27.3268V30.9868Z" fill="#003D59"/>
<path d="M37.2774 26.6668C37.2774 26.1548 37.3654 25.6468 37.5414 25.1428C37.7254 24.6308 37.9894 24.1748 38.3334 23.7748C38.6774 23.3748 39.1014 23.0508 39.6054 22.8028C40.1094 22.5468 40.6814 22.4188 41.3214 22.4188C42.0814 22.4188 42.7294 22.5908 43.2654 22.9348C43.8094 23.2788 44.2094 23.7268 44.4654 24.2788L43.8054 24.6868C43.6694 24.4068 43.5014 24.1708 43.3014 23.9788C43.1094 23.7868 42.9014 23.6308 42.6774 23.5108C42.4534 23.3908 42.2214 23.3068 41.9814 23.2588C41.7414 23.2028 41.5054 23.1748 41.2734 23.1748C40.7614 23.1748 40.3094 23.2788 39.9174 23.4868C39.5254 23.6948 39.1934 23.9668 38.9214 24.3028C38.6574 24.6388 38.4574 25.0188 38.3214 25.4428C38.1854 25.8588 38.1174 26.2828 38.1174 26.7148C38.1174 27.1868 38.1974 27.6388 38.3574 28.0708C38.5254 28.5028 38.7494 28.8868 39.0294 29.2228C39.3174 29.5508 39.6534 29.8148 40.0374 30.0148C40.4294 30.2068 40.8534 30.3028 41.3094 30.3028C41.5494 30.3028 41.7934 30.2748 42.0414 30.2188C42.2974 30.1548 42.5414 30.0588 42.7734 29.9308C43.0134 29.7948 43.2334 29.6308 43.4334 29.4388C43.6334 29.2388 43.8014 28.9988 43.9374 28.7188L44.6334 29.0788C44.4974 29.3988 44.3054 29.6828 44.0574 29.9308C43.8094 30.1708 43.5334 30.3748 43.2294 30.5428C42.9254 30.7108 42.6014 30.8388 42.2574 30.9268C41.9214 31.0148 41.5894 31.0588 41.2614 31.0588C40.6774 31.0588 40.1414 30.9308 39.6534 30.6748C39.1654 30.4188 38.7454 30.0868 38.3934 29.6788C38.0414 29.2628 37.7654 28.7948 37.5654 28.2748C37.3734 27.7468 37.2774 27.2108 37.2774 26.6668ZM48.564 31.1068C48.108 31.1068 47.692 31.0228 47.316 30.8548C46.94 30.6788 46.612 30.4428 46.332 30.1468C46.06 29.8508 45.848 29.5068 45.696 29.1148C45.544 28.7228 45.468 28.3108 45.468 27.8788C45.468 27.4388 45.544 27.0228 45.696 26.6308C45.856 26.2388 46.072 25.8948 46.344 25.5988C46.624 25.3028 46.952 25.0668 47.328 24.8908C47.704 24.7148 48.116 24.6268 48.564 24.6268C49.012 24.6268 49.424 24.7148 49.8 24.8908C50.184 25.0668 50.512 25.3028 50.784 25.5988C51.064 25.8948 51.28 26.2388 51.432 26.6308C51.592 27.0228 51.672 27.4388 51.672 27.8788C51.672 28.3108 51.596 28.7228 51.444 29.1148C51.292 29.5068 51.076 29.8508 50.796 30.1468C50.524 30.4428 50.196 30.6788 49.812 30.8548C49.436 31.0228 49.02 31.1068 48.564 31.1068ZM46.296 27.8908C46.296 28.2428 46.356 28.5708 46.476 28.8748C46.596 29.1708 46.756 29.4348 46.956 29.6668C47.164 29.8908 47.404 30.0668 47.676 30.1948C47.956 30.3228 48.252 30.3868 48.564 30.3868C48.876 30.3868 49.168 30.3228 49.44 30.1948C49.72 30.0588 49.964 29.8788 50.172 29.6548C50.38 29.4228 50.544 29.1548 50.664 28.8508C50.784 28.5468 50.844 28.2188 50.844 27.8668C50.844 27.5228 50.784 27.1988 50.664 26.8948C50.544 26.5828 50.38 26.3148 50.172 26.0908C49.964 25.8588 49.72 25.6788 49.44 25.5508C49.168 25.4148 48.876 25.3468 48.564 25.3468C48.252 25.3468 47.96 25.4148 47.688 25.5508C47.416 25.6788 47.176 25.8588 46.968 26.0908C46.76 26.3228 46.596 26.5948 46.476 26.9068C46.356 27.2108 46.296 27.5388 46.296 27.8908ZM55.6047 31.1068C55.1727 31.1068 54.7727 31.0188 54.4047 30.8428C54.0367 30.6588 53.7207 30.4188 53.4567 30.1228C53.1927 29.8268 52.9847 29.4868 52.8327 29.1028C52.6887 28.7108 52.6167 28.3028 52.6167 27.8788C52.6167 27.4388 52.6887 27.0228 52.8327 26.6308C52.9767 26.2308 53.1727 25.8828 53.4207 25.5868C53.6767 25.2908 53.9767 25.0588 54.3207 24.8908C54.6727 24.7148 55.0567 24.6268 55.4727 24.6268C56.0007 24.6268 56.4687 24.7668 56.8767 25.0468C57.2847 25.3188 57.6047 25.6508 57.8367 26.0428V22.2268H58.6527V29.9308C58.6527 30.1548 58.7487 30.2668 58.9407 30.2668V30.9868C58.8207 31.0108 58.7247 31.0228 58.6527 31.0228C58.4607 31.0228 58.2927 30.9628 58.1487 30.8428C58.0047 30.7148 57.9327 30.5628 57.9327 30.3868V29.7748C57.6847 30.1828 57.3487 30.5068 56.9247 30.7468C56.5007 30.9868 56.0607 31.1068 55.6047 31.1068ZM55.7847 30.3868C55.9847 30.3868 56.1967 30.3468 56.4207 30.2668C56.6527 30.1868 56.8687 30.0788 57.0687 29.9428C57.2687 29.7988 57.4367 29.6348 57.5727 29.4508C57.7167 29.2588 57.8047 29.0548 57.8367 28.8388V26.9068C57.7567 26.6908 57.6407 26.4908 57.4887 26.3068C57.3367 26.1148 57.1607 25.9468 56.9607 25.8028C56.7687 25.6588 56.5607 25.5468 56.3367 25.4668C56.1127 25.3868 55.8927 25.3468 55.6767 25.3468C55.3407 25.3468 55.0367 25.4188 54.7647 25.5628C54.4927 25.7068 54.2567 25.8988 54.0567 26.1388C53.8647 26.3708 53.7167 26.6388 53.6127 26.9428C53.5087 27.2468 53.4567 27.5588 53.4567 27.8788C53.4567 28.2148 53.5167 28.5348 53.6367 28.8388C53.7567 29.1428 53.9207 29.4108 54.1287 29.6428C54.3367 29.8668 54.5807 30.0468 54.8607 30.1828C55.1487 30.3188 55.4567 30.3868 55.7847 30.3868ZM63.2016 31.1068C62.7456 31.1068 62.3256 31.0228 61.9416 30.8548C61.5656 30.6788 61.2376 30.4428 60.9576 30.1468C60.6776 29.8428 60.4576 29.4948 60.2976 29.1028C60.1456 28.7108 60.0696 28.2908 60.0696 27.8428C60.0696 27.4028 60.1456 26.9908 60.2976 26.6068C60.4576 26.2148 60.6736 25.8748 60.9456 25.5868C61.2256 25.2908 61.5576 25.0588 61.9416 24.8908C62.3256 24.7148 62.7416 24.6268 63.1896 24.6268C63.6456 24.6268 64.0616 24.7148 64.4376 24.8908C64.8216 25.0588 65.1496 25.2908 65.4216 25.5868C65.6936 25.8828 65.9056 26.2228 66.0576 26.6068C66.2096 26.9908 66.2856 27.3988 66.2856 27.8308C66.2856 27.8948 66.2856 27.9588 66.2856 28.0228C66.2856 28.0868 66.2816 28.1308 66.2736 28.1548H60.9216C60.9456 28.4908 61.0216 28.8028 61.1496 29.0908C61.2856 29.3708 61.4576 29.6148 61.6656 29.8228C61.8736 30.0308 62.1096 30.1948 62.3736 30.3148C62.6456 30.4268 62.9336 30.4828 63.2376 30.4828C63.4376 30.4828 63.6376 30.4548 63.8376 30.3988C64.0376 30.3428 64.2216 30.2668 64.3896 30.1708C64.5576 30.0748 64.7096 29.9588 64.8456 29.8228C64.9816 29.6788 65.0856 29.5228 65.1576 29.3548L65.8656 29.5468C65.7696 29.7788 65.6336 29.9908 65.4576 30.1828C65.2816 30.3668 65.0776 30.5308 64.8456 30.6748C64.6136 30.8108 64.3576 30.9148 64.0776 30.9868C63.7976 31.0668 63.5056 31.1068 63.2016 31.1068ZM65.5056 27.5308C65.4816 27.1948 65.4016 26.8908 65.2656 26.6188C65.1376 26.3388 64.9696 26.0988 64.7616 25.8988C64.5616 25.6988 64.3256 25.5428 64.0536 25.4308C63.7896 25.3188 63.5056 25.2628 63.2016 25.2628C62.8976 25.2628 62.6096 25.3188 62.3376 25.4308C62.0656 25.5428 61.8256 25.6988 61.6176 25.8988C61.4176 26.0988 61.2536 26.3388 61.1256 26.6188C61.0056 26.8988 60.9336 27.2028 60.9096 27.5308H65.5056Z" fill="#373940"/>
</svg>
