<svg width="30" height="30" viewBox="0 0 30 30" fill="none" xmlns="http://www.w3.org/2000/svg">
<path d="M15.6915 29.219L29.6992 15.2105C29.8995 15.0105 30 14.7799 30 14.5194C30 14.2591 29.8995 14.0288 29.6992 13.8285L28.1962 12.3253C27.9959 12.1249 27.7657 12.0249 27.5048 12.0249C27.2439 12.0249 27.0138 12.1249 26.8134 12.3253L14.9998 24.1392L3.18587 12.3254C2.98551 12.125 2.75493 12.025 2.49477 12.025C2.23398 12.025 2.0034 12.125 1.80304 12.3254L0.300489 13.8286C0.0999184 14.0288 0 14.2591 0 14.5195C0 14.7804 0.100128 15.0106 0.300489 15.2105L14.3083 29.219C14.5085 29.4192 14.7392 29.5191 14.9997 29.5191C15.2602 29.5191 15.4907 29.4192 15.6915 29.219Z" fill="#373940"/>
<path d="M14.9997 17.9761C15.2602 17.9761 15.4908 17.8764 15.6915 17.6753L29.6992 3.66774C29.8995 3.46748 30 3.23691 30 2.97643C30 2.71595 29.8995 2.48526 29.6992 2.28501L28.1961 0.782144C27.9958 0.581468 27.7656 0.481445 27.5047 0.481445C27.2438 0.481445 27.0136 0.581468 26.8133 0.782144L14.9997 12.5957L3.18587 0.782144C2.98551 0.581468 2.75493 0.481445 2.49477 0.481445C2.23398 0.481445 2.0034 0.581468 1.80304 0.782144L0.300489 2.2849C0.0999184 2.48526 0 2.71584 0 2.97632C0 3.2368 0.100128 3.46738 0.300489 3.66774L14.3083 17.6753C14.5085 17.8764 14.7392 17.9761 14.9997 17.9761Z" fill="#373940"/>
</svg>
